<svg width="20" height="16" viewBox="0 0 20 16" fill="none" xmlns="http://www.w3.org/2000/svg">
<g opacity="0.2">
<mask id="mask0_1814_77" style="mask-type:alpha" maskUnits="userSpaceOnUse" x="0" y="0" width="20" height="16">
<path fill-rule="evenodd" clip-rule="evenodd" d="M15.9842 0.147066C15.6448 -0.0973327 15.1641 -0.0301996 14.9106 0.297012L3.65935 14.8179L3.59818 14.9103C3.42071 15.2276 3.50632 15.6308 3.8149 15.8529C4.15434 16.0973 4.63504 16.0302 4.88857 15.703L16.1398 1.18206L16.2009 1.08971C16.3784 0.772406 16.2928 0.369247 15.9842 0.147066ZM9.99956 0.918808C10.5362 0.918808 11.057 0.97368 11.5605 1.07332C12.0335 1.16693 12.2082 1.72512 11.9129 2.10627C11.7447 2.32336 11.4648 2.41774 11.1945 2.36914C10.8133 2.3006 10.4222 2.26335 10.0223 2.26335C6.67833 2.26335 3.94421 4.86884 2.49971 6.5951C1.76614 7.47176 1.76706 8.70879 2.50071 9.58538C2.91284 10.0778 3.42985 10.6417 4.03598 11.1962C4.30774 11.4448 4.35434 11.8614 4.12875 12.1525C3.8925 12.4574 3.44991 12.5077 3.16327 12.2496C1.36371 10.6293 0.287103 8.93353 0.203064 8.79775C-0.067688 8.36501 -0.067688 7.81872 0.203064 7.38599C0.366718 7.12157 4.29441 0.918808 9.99956 0.918808ZM9.99957 4.50425C10.0222 4.50425 10.0347 4.53021 10.0209 4.5481L8.80112 6.12233C8.73622 6.2061 8.65753 6.27783 8.57456 6.34374C8.29235 6.56791 8.06562 6.85722 7.91786 7.1885C7.87328 7.28847 7.82212 7.38584 7.75507 7.47237L7.12336 8.28766C6.86566 8.62025 6.36281 8.51038 6.36281 8.08964C6.36281 6.10948 7.99105 4.50425 9.99957 4.50425ZM13.6363 8.08964C13.6363 7.50259 12.935 7.37781 12.5754 7.84187L12.4338 8.02467C12.3254 8.16447 12.2663 8.33444 12.233 8.50813C12.0973 9.21612 11.6239 9.80641 10.9841 10.11C10.8299 10.1831 10.6861 10.2802 10.5816 10.4151L9.85299 11.3554C9.75161 11.4863 9.83405 11.675 9.99957 11.675C12.0081 11.675 13.6363 10.0698 13.6363 8.08964ZM10.0223 13.9159C9.51649 13.9159 9.02461 13.8563 8.54904 13.7491C8.2703 13.6863 7.97543 13.7786 7.80042 14.0045C7.5109 14.3782 7.67234 14.9259 8.13215 15.0355C8.72852 15.1776 9.35043 15.2584 9.99501 15.2604H10.0223C15.7093 15.2604 19.6369 9.05769 19.8006 8.79326C20.0681 8.36078 20.0663 7.81679 19.7961 7.38599C19.7087 7.24481 18.5483 5.41083 16.6173 3.73192C16.3358 3.48715 15.9092 3.53924 15.6807 3.83412C15.4563 4.12371 15.5075 4.53899 15.7828 4.78068C16.4564 5.37205 17.0296 5.98559 17.4829 6.52137C18.2584 7.43806 18.2574 8.74038 17.4811 9.65637C16.0185 11.3821 13.311 13.9159 10.0223 13.9159Z" fill="white"/>
</mask>
<g mask="url(#mask0_1814_77)">
<rect x="-0.328796" y="-2.21844" width="20" height="20" fill="black"/>
</g>
</g>
</svg>
