<svg width="167" height="73" viewBox="0 0 167 73" fill="none" xmlns="http://www.w3.org/2000/svg">
<path d="M62.1854 9.21634C62.1846 8.83143 62.3352 8.46164 62.6047 8.18679C62.8741 7.91194 63.2409 7.75407 63.6257 7.74727H79.519C79.6928 7.7465 79.8651 7.78018 80.0259 7.84636C80.1866 7.91253 80.3327 8.00989 80.4556 8.13282C80.5785 8.25574 80.6759 8.4018 80.7421 8.56256C80.8083 8.72331 80.8419 8.89559 80.8412 9.06943C80.8439 9.42426 80.7066 9.76585 80.4591 10.0201C80.2116 10.2744 79.8738 10.4208 79.519 10.4276H65.089V19.6064H77.867C78.2177 19.6064 78.554 19.7457 78.8019 19.9936C79.0499 20.2416 79.1892 20.5779 79.1892 20.9286C79.1892 21.2792 79.0499 21.6155 78.8019 21.8635C78.554 22.1114 78.2177 22.2507 77.867 22.2507H65.089V32.164C65.089 32.5487 64.9362 32.9176 64.6642 33.1896C64.3922 33.4616 64.0233 33.6144 63.6387 33.6144C63.254 33.6144 62.8851 33.4616 62.6131 33.1896C62.3411 32.9176 62.1883 32.5487 62.1883 32.164L62.1854 9.21634Z" fill="white"/>
<path d="M81.9056 31.5403L92.3331 8.73808C92.7004 7.93009 93.2505 7.45336 94.1694 7.45336H94.3134C95.1934 7.45336 95.7811 7.93009 96.1123 8.73808L106.546 31.5029C106.653 31.7336 106.715 31.9831 106.729 32.2374C106.729 32.4206 106.693 32.6021 106.623 32.7714C106.553 32.9407 106.45 33.0946 106.321 33.2242C106.191 33.3538 106.037 33.4566 105.868 33.5268C105.699 33.5969 105.518 33.633 105.334 33.633C104.636 33.633 104.159 33.1549 103.894 32.5672L101.214 26.6621H87.1193L84.439 32.6464C84.1826 33.2715 83.7045 33.6388 83.0434 33.6388C82.8695 33.6395 82.6973 33.6059 82.5365 33.5397C82.3758 33.4735 82.2297 33.3762 82.1068 33.2532C81.9839 33.1303 81.8865 32.9842 81.8203 32.8235C81.7541 32.6627 81.7205 32.4905 81.7212 32.3166C81.72 32.0487 81.7832 31.7844 81.9056 31.5461V31.5403ZM100.08 24.0178L94.1752 10.874L88.2543 24.0121L100.08 24.0178ZM93.4392 4.73702C93.4439 4.53905 93.5076 4.34698 93.6221 4.1854L95.8257 0.843994C96.193 0.293814 96.5963 0 97.1479 0C98.0293 0 99.1297 0.587628 99.1297 1.1018C99.1297 1.38985 98.9093 1.65198 98.6155 1.9458L95.8617 4.55267C95.2741 5.1403 94.8334 5.24976 94.1334 5.24976C93.7301 5.24976 93.4363 5.0294 93.4363 4.73702" fill="white"/>
<path d="M109.811 20.6722V20.5987C109.811 13.3283 115.245 7.30652 122.808 7.30652C126.957 7.30652 129.601 8.66469 131.988 10.6479C132.164 10.7904 132.308 10.969 132.409 11.1718C132.511 11.3745 132.567 11.5967 132.575 11.8232C132.575 12.5937 131.877 13.2548 131.106 13.2548C130.762 13.242 130.43 13.1266 130.151 12.9235C128.17 11.1621 125.929 9.99405 122.772 9.99405C117.08 9.99405 112.821 14.6202 112.821 20.5325V20.6059C112.821 26.5542 117.117 31.2163 122.772 31.2163C125.966 31.2163 128.206 30.116 130.405 28.0953C130.647 27.8466 130.977 27.702 131.324 27.692C131.69 27.7032 132.039 27.8538 132.298 28.1132C132.558 28.3725 132.708 28.721 132.719 29.0876C132.718 29.2832 132.674 29.4761 132.591 29.6534C132.509 29.8308 132.39 29.9885 132.241 30.116C129.708 32.429 126.912 33.8967 122.695 33.8967C115.278 33.8967 109.808 28.0593 109.808 20.6794" fill="white"/>
<path d="M138.302 9.03195C138.302 8.64729 138.455 8.27839 138.727 8.0064C138.999 7.73441 139.368 7.5816 139.752 7.5816C140.137 7.5816 140.506 7.73441 140.778 8.0064C141.05 8.27839 141.203 8.64729 141.203 9.03195V32.164C141.203 32.5487 141.05 32.9176 140.778 33.1896C140.506 33.4616 140.137 33.6144 139.752 33.6144C139.368 33.6144 138.999 33.4616 138.727 33.1896C138.455 32.9176 138.302 32.5487 138.302 32.164V9.03195Z" fill="white"/>
<path d="M148.729 9.03195C148.729 8.64729 148.882 8.27839 149.154 8.0064C149.426 7.73441 149.795 7.5816 150.18 7.5816C150.564 7.5816 150.933 7.73441 151.205 8.0064C151.477 8.27839 151.63 8.64729 151.63 9.03195V30.7684H164.958C165.313 30.7756 165.651 30.9223 165.899 31.1768C166.146 31.4313 166.283 31.773 166.281 32.128C166.281 32.3017 166.247 32.4738 166.181 32.6344C166.115 32.795 166.017 32.9409 165.894 33.0637C165.772 33.1865 165.626 33.2837 165.465 33.3498C165.304 33.4159 165.132 33.4495 164.958 33.4487H150.161C149.778 33.4397 149.414 33.281 149.146 33.0067C148.879 32.7324 148.729 32.3643 148.729 31.9811V9.03195Z" fill="white"/>
<path d="M62.1365 56.5419V56.4511C62.1365 47.3544 69.3134 39.904 79.1864 39.904C89.0594 39.904 96.144 47.2637 96.144 56.359V56.4511C96.144 65.5464 88.9672 72.9969 79.0942 72.9969C69.2212 72.9969 62.1365 65.6386 62.1365 56.5419ZM88.7814 56.5419V56.4511C88.7814 50.9652 84.7602 46.3938 79.0913 46.3938C73.4224 46.3938 69.4934 50.8744 69.4934 56.359V56.4511C69.4934 61.9357 73.5146 66.5071 79.1835 66.5071C84.8524 66.5071 88.7814 62.0278 88.7814 56.5419Z" fill="white"/>
<path d="M102.405 43.7897C102.401 43.3264 102.49 42.8671 102.665 42.4384C102.841 42.0096 103.1 41.6202 103.428 41.2926C103.755 40.965 104.145 40.7058 104.574 40.5302C105.002 40.3546 105.462 40.2661 105.925 40.2697H106.703C108.211 40.2697 109.262 41.046 109.901 42.0974L118.399 55.947L126.947 42.0527C127.679 40.8631 128.684 40.2697 130.101 40.2697H130.886C131.349 40.2661 131.809 40.3546 132.237 40.5302C132.666 40.7058 133.056 40.965 133.383 41.2926C133.711 41.6202 133.97 42.0096 134.146 42.4384C134.321 42.8671 134.41 43.3264 134.406 43.7897V69.2031C134.406 69.6624 134.316 70.1171 134.14 70.5414C133.964 70.9656 133.707 71.3511 133.382 71.6759C133.057 72.0006 132.672 72.2582 132.247 72.4339C131.823 72.6096 131.368 72.7001 130.909 72.7001C130.45 72.7001 129.995 72.6096 129.571 72.4339C129.147 72.2582 128.761 72.0006 128.436 71.6759C128.112 71.3511 127.854 70.9656 127.678 70.5414C127.503 70.1171 127.412 69.6624 127.412 69.2031V53.2508L121.242 62.7565C120.51 63.854 119.596 64.5396 118.317 64.5396C117.038 64.5396 116.122 63.854 115.392 62.7565L109.312 53.3862V69.2953C109.312 69.7492 109.221 70.1983 109.046 70.6169C108.87 71.0355 108.613 71.4151 108.29 71.7339C107.967 72.0526 107.584 72.3042 107.163 72.474C106.743 72.6438 106.292 72.7285 105.838 72.7231C105.387 72.7278 104.939 72.6423 104.521 72.4717C104.103 72.301 103.723 72.0488 103.404 71.7295C103.084 71.4103 102.832 71.0306 102.661 70.6127C102.49 70.1947 102.405 69.7468 102.409 69.2953L102.405 43.7897Z" fill="white"/>
<path d="M142.08 68.9296V43.9712C142.076 43.5082 142.165 43.049 142.34 42.6204C142.516 42.1919 142.775 41.8026 143.102 41.4751C143.43 41.1477 143.819 40.8886 144.248 40.7131C144.676 40.5376 145.135 40.449 145.598 40.4527H163.334C164.169 40.4565 164.969 40.79 165.56 41.3807C166.151 41.9714 166.484 42.7715 166.488 43.6069C166.486 44.0184 166.403 44.4256 166.243 44.8049C166.084 45.1843 165.851 45.5283 165.558 45.8172C165.264 46.1061 164.917 46.3341 164.535 46.4882C164.154 46.6422 163.745 46.7193 163.334 46.7149H149.075V53.2019H161.276C162.111 53.2057 162.911 53.5392 163.502 54.1299C164.092 54.7206 164.426 55.5207 164.43 56.3561C164.428 56.7679 164.346 57.1754 164.186 57.555C164.027 57.9347 163.794 58.2791 163.5 58.5682C163.207 58.8574 162.86 59.0857 162.478 59.24C162.096 59.3942 161.687 59.4714 161.276 59.467H149.072V66.1873H163.561C164.397 66.1888 165.198 66.5214 165.789 67.1123C166.381 67.7032 166.714 68.5042 166.715 69.34C166.714 69.7517 166.631 70.1589 166.471 70.5383C166.311 70.9178 166.078 71.2619 165.785 71.5509C165.492 71.8398 165.145 72.068 164.763 72.2223C164.381 72.3765 163.973 72.4538 163.561 72.4496H145.598C145.135 72.453 144.676 72.3643 144.247 72.1886C143.819 72.0129 143.43 71.7538 143.102 71.4262C142.775 71.0986 142.516 70.7092 142.34 70.2806C142.165 69.852 142.076 69.3927 142.08 68.9296Z" fill="white"/>
<path d="M53.3783 14.6907V66.0548C53.3854 66.9686 53.2106 67.8746 52.8642 68.7201C52.5177 69.5657 52.0065 70.3339 51.3603 70.9799C50.7141 71.626 49.9458 72.1371 49.1002 72.4833C48.2546 72.8296 47.3485 73.0042 46.4348 72.9969H42.945C42.945 66.6496 42.945 54.4982 42.945 52.996V52.61L43.0559 52.5581C43.1668 52.7095 43.2871 52.8538 43.416 52.9902C43.5997 53.1728 43.8292 53.3025 44.0804 53.3656C44.3316 53.4287 44.5951 53.4229 44.8433 53.3488C46.0358 53.0176 46.3354 51.6479 45.4194 50.7218C40.2834 45.5541 35.1465 40.3865 30.0086 35.2188C28.1593 33.3594 25.3724 33.3565 23.5188 35.2058C18.4298 40.2804 13.3443 45.3573 8.26207 50.4366C7.94233 50.7563 7.7018 51.1567 7.42383 51.5182V52.2701C7.45292 52.3083 7.47893 52.3487 7.50161 52.391C7.98266 53.5116 9.19536 53.7492 10.0696 52.8894C10.162 52.7872 10.2467 52.6784 10.3231 52.5639L10.4354 52.6143V53.0003C10.4354 56.5232 10.4613 66.8066 10.4441 72.9998H6.94423C6.03048 73.0071 5.12442 72.8325 4.2788 72.4862C3.43318 72.1399 2.66489 71.6289 2.01869 70.9828C1.37249 70.3368 0.861282 69.5686 0.514834 68.723C0.168386 67.8775 -0.00637757 66.9714 0.000720188 66.0577V14.6907C-0.0125332 13.7706 0.157255 12.857 0.500215 12.003C0.843175 11.1491 1.35246 10.3718 1.99848 9.71641C2.64449 9.06102 3.41434 8.54059 4.26326 8.18537C5.11219 7.83015 6.02326 7.64722 6.94351 7.64722C7.86376 7.64722 8.77483 7.83015 9.62375 8.18537C10.4727 8.54059 11.2425 9.06102 11.8885 9.71641C12.5345 10.3718 13.0438 11.1491 13.3868 12.003C13.7298 12.857 13.8995 13.7706 13.8863 14.6907V26.9646H39.4942V14.6907C39.4942 12.8492 40.2257 11.0831 41.5279 9.78092C42.83 8.47876 44.5961 7.74722 46.4377 7.74722C48.2792 7.74722 50.0453 8.47876 51.3475 9.78092C52.6496 11.0831 53.3812 12.8492 53.3812 14.6907H53.3783ZM30.4997 51.4376C30.7005 51.4439 30.9005 51.4093 31.0875 51.3359C31.2745 51.2625 31.4446 51.1519 31.5876 51.0107C31.7305 50.8695 31.8432 50.7008 31.9189 50.5147C31.9946 50.3286 32.0316 50.129 32.0278 49.9282C32.0278 49.0741 31.3725 48.4332 30.4868 48.4332C28.0297 48.4332 25.5726 48.4332 23.1155 48.4332C22.2283 48.4332 21.573 49.0712 21.5701 49.9253C21.5672 50.7794 22.2182 51.4376 23.1299 51.439C24.3455 51.439 25.5611 51.439 26.7766 51.439C28.0182 51.439 29.2582 51.4376 30.4997 51.4376Z" fill="white"/>
</svg>
