<svg width="103" height="45" viewBox="0 0 103 45" fill="none" xmlns="http://www.w3.org/2000/svg">
<path d="M38.3335 5.68129C38.333 5.44402 38.4258 5.21607 38.5919 5.04664C38.758 4.87721 38.9841 4.7799 39.2213 4.7757H49.0186C49.1257 4.77523 49.2319 4.79599 49.331 4.83679C49.4301 4.87758 49.5202 4.9376 49.5959 5.01337C49.6717 5.08915 49.7317 5.17918 49.7725 5.27828C49.8133 5.37738 49.8341 5.48357 49.8336 5.59074C49.8353 5.80947 49.7506 6.02004 49.5981 6.17677C49.4455 6.33351 49.2373 6.42376 49.0186 6.42796H40.1234V12.0861H48.0002C48.2164 12.0861 48.4237 12.172 48.5765 12.3248C48.7294 12.4777 48.8153 12.685 48.8153 12.9012C48.8153 13.1173 48.7294 13.3246 48.5765 13.4775C48.4237 13.6303 48.2164 13.7162 48.0002 13.7162H40.1234V19.8271C40.1234 20.0643 40.0292 20.2917 39.8615 20.4593C39.6938 20.627 39.4664 20.7212 39.2293 20.7212C38.9922 20.7212 38.7648 20.627 38.5971 20.4593C38.4295 20.2917 38.3353 20.0643 38.3353 19.8271L38.3335 5.68129Z" fill="black"/>
<path d="M50.4897 19.4427L56.9177 5.38649C57.1441 4.88841 57.4832 4.59454 58.0497 4.59454H58.1384C58.6809 4.59454 59.0431 4.88841 59.2473 5.38649L65.6788 19.4196C65.7452 19.5618 65.7835 19.7156 65.7916 19.8724C65.7917 19.9853 65.7695 20.0972 65.7264 20.2015C65.6833 20.3059 65.62 20.4008 65.5402 20.4807C65.4603 20.5606 65.3656 20.6239 65.2612 20.6672C65.1569 20.7104 65.0451 20.7327 64.9321 20.7327C64.5015 20.7327 64.2077 20.4379 64.0443 20.0757L62.392 16.4356H53.7037L52.0515 20.1245C51.8934 20.5098 51.5987 20.7362 51.1911 20.7362C51.084 20.7367 50.9778 20.7159 50.8787 20.6752C50.7796 20.6344 50.6896 20.5743 50.6138 20.4986C50.538 20.4228 50.478 20.3328 50.4372 20.2337C50.3964 20.1346 50.3756 20.0284 50.3761 19.9212C50.3754 19.7561 50.4143 19.5931 50.4897 19.4462V19.4427ZM61.6933 14.8055L58.0532 6.70314L54.4033 14.802L61.6933 14.8055ZM57.5995 2.92008C57.6024 2.79804 57.6417 2.67965 57.7123 2.58004L59.0707 0.52027C59.2971 0.181118 59.5457 0 59.8857 0C60.429 0 61.1074 0.362236 61.1074 0.679193C61.1074 0.856759 60.9715 1.01835 60.7904 1.19946L59.0929 2.80644C58.7306 3.16868 58.4589 3.23615 58.0275 3.23615C57.7789 3.23615 57.5977 3.10031 57.5977 2.92008" fill="black"/>
<path d="M67.6915 12.7431V12.6978C67.6915 8.21606 71.0413 4.50403 75.7033 4.50403C78.2612 4.50403 79.8912 5.34126 81.3624 6.5638C81.4711 6.65162 81.5596 6.76173 81.6221 6.88671C81.6846 7.0117 81.7196 7.14863 81.7246 7.28827C81.7246 7.76327 81.294 8.17078 80.819 8.17078C80.6068 8.16289 80.4019 8.09178 80.2304 7.96658C79.0087 6.88076 77.6272 6.16073 75.6811 6.16073C72.1724 6.16073 69.5471 9.01245 69.5471 12.657V12.7023C69.5471 16.369 72.1955 19.243 75.6811 19.243C77.6503 19.243 79.0309 18.5646 80.3866 17.319C80.536 17.1657 80.7391 17.0766 80.9531 17.0704C81.1791 17.0773 81.3939 17.1702 81.5538 17.3301C81.7136 17.4899 81.8065 17.7048 81.8134 17.9307C81.8122 18.0513 81.7853 18.1702 81.7345 18.2795C81.6836 18.3888 81.61 18.486 81.5186 18.5646C79.9569 19.9905 78.2336 20.8952 75.6341 20.8952C71.0617 20.8952 67.6897 17.2968 67.6897 12.7476" fill="black"/>
<path d="M85.2546 5.56763C85.2546 5.33052 85.3488 5.10311 85.5165 4.93544C85.6842 4.76778 85.9116 4.67358 86.1487 4.67358C86.3858 4.67358 86.6132 4.76778 86.7809 4.93544C86.9485 5.10311 87.0427 5.33052 87.0427 5.56763V19.8271C87.0427 20.0642 86.9485 20.2916 86.7809 20.4593C86.6132 20.627 86.3858 20.7212 86.1487 20.7212C85.9116 20.7212 85.6842 20.627 85.5165 20.4593C85.3488 20.2916 85.2546 20.0642 85.2546 19.8271V5.56763Z" fill="black"/>
<path d="M91.6826 5.56763C91.6826 5.33052 91.7768 5.10311 91.9444 4.93544C92.1121 4.76778 92.3395 4.67358 92.5766 4.67358C92.8137 4.67358 93.0411 4.76778 93.2088 4.93544C93.3765 5.10311 93.4707 5.33052 93.4707 5.56763V18.9668H101.687C101.905 18.9712 102.114 19.0617 102.266 19.2186C102.419 19.3754 102.503 19.5861 102.502 19.8049C102.502 19.912 102.481 20.0181 102.44 20.1171C102.4 20.2161 102.339 20.306 102.264 20.3817C102.188 20.4574 102.098 20.5173 101.999 20.5581C101.9 20.5988 101.794 20.6195 101.687 20.6191H92.5651C92.3289 20.6135 92.1043 20.5157 91.9394 20.3466C91.7745 20.1775 91.6823 19.9506 91.6826 19.7144V5.56763Z" fill="black"/>
<path d="M38.3033 34.8546V34.7986C38.3033 29.1911 42.7274 24.5983 48.8135 24.5983C54.8996 24.5983 59.2668 29.1352 59.2668 34.7418V34.7986C59.2668 40.4053 54.8428 44.9981 48.7567 44.9981C42.6706 44.9981 38.3033 40.4621 38.3033 34.8546ZM54.7282 34.8546V34.7986C54.7282 31.4169 52.2494 28.5989 48.7549 28.5989C45.2604 28.5989 42.8384 31.361 42.8384 34.7418V34.7986C42.8384 38.1795 45.3172 40.9975 48.8117 40.9975C52.3062 40.9975 54.7282 38.2363 54.7282 34.8546Z" fill="black"/>
<path d="M63.1263 26.9937C63.124 26.7081 63.1786 26.4249 63.2869 26.1606C63.3951 25.8964 63.5549 25.6563 63.7568 25.4543C63.9588 25.2524 64.1989 25.0926 64.4631 24.9844C64.7274 24.8761 65.0106 24.8216 65.2962 24.8238H65.7756C66.7051 24.8238 67.3533 25.3023 67.7475 25.9505L72.9857 34.4879L78.255 25.9229C78.706 25.1896 79.3257 24.8238 80.1993 24.8238H80.6832C80.9688 24.8216 81.2519 24.8761 81.5162 24.9844C81.7805 25.0926 82.0206 25.2524 82.2225 25.4543C82.4245 25.6563 82.5842 25.8964 82.6925 26.1606C82.8007 26.4249 82.8553 26.7081 82.8531 26.9937V42.6595C82.8531 42.9426 82.7973 43.2229 82.689 43.4844C82.5806 43.746 82.4219 43.9836 82.2217 44.1838C82.0215 44.3839 81.7839 44.5427 81.5223 44.6511C81.2608 44.7594 80.9805 44.8151 80.6974 44.8151C80.4143 44.8151 80.134 44.7594 79.8725 44.6511C79.6109 44.5427 79.3733 44.3839 79.1731 44.1838C78.9729 43.9836 78.8142 43.746 78.7058 43.4844C78.5975 43.2229 78.5417 42.9426 78.5417 42.6595V32.8258L74.7383 38.6855C74.2872 39.3621 73.7235 39.7847 72.9351 39.7847C72.1467 39.7847 71.582 39.3621 71.1319 38.6855L67.3843 32.9093V42.7163C67.3839 42.9961 67.328 43.273 67.2198 43.531C67.1117 43.789 66.9535 44.023 66.7544 44.2195C66.5552 44.416 66.3191 44.5711 66.0597 44.6758C65.8002 44.7804 65.5226 44.8326 65.2429 44.8293C64.9646 44.8322 64.6885 44.7795 64.4308 44.6743C64.1731 44.5692 63.9389 44.4136 63.7421 44.2169C63.5452 44.0201 63.3896 43.786 63.2843 43.5284C63.179 43.2707 63.1262 42.9946 63.129 42.7163L63.1263 26.9937Z" fill="black"/>
<path d="M87.5834 42.4908V27.1056C87.5812 26.8201 87.6358 26.5371 87.744 26.2729C87.8522 26.0087 88.0119 25.7687 88.2137 25.5669C88.4156 25.365 88.6556 25.2053 88.9197 25.0971C89.1839 24.9889 89.467 24.9343 89.7524 24.9366H100.685C101.2 24.9389 101.693 25.1445 102.057 25.5087C102.422 25.8728 102.627 26.366 102.63 26.8809C102.629 27.1347 102.577 27.3857 102.479 27.6195C102.38 27.8533 102.237 28.0654 102.056 28.2435C101.875 28.4215 101.661 28.5621 101.426 28.6571C101.191 28.7521 100.939 28.7996 100.685 28.7969H91.8957V32.7957H99.4165C99.9314 32.798 100.425 33.0036 100.789 33.3678C101.153 33.7319 101.359 34.2251 101.361 34.74C101.36 34.9939 101.309 35.2451 101.211 35.4791C101.112 35.7132 100.969 35.9255 100.788 36.1037C100.607 36.282 100.393 36.4227 100.158 36.5178C99.9222 36.6129 99.6703 36.6605 99.4165 36.6578H91.8939V40.8004H100.825C101.341 40.8013 101.835 41.0064 102.199 41.3706C102.563 41.7349 102.769 42.2286 102.77 42.7439C102.769 42.9976 102.718 43.2487 102.619 43.4825C102.521 43.7164 102.377 43.9286 102.196 44.1067C102.016 44.2848 101.801 44.4255 101.566 44.5206C101.331 44.6157 101.079 44.6633 100.825 44.6607H89.7524C89.4669 44.6628 89.1838 44.6081 88.9197 44.4998C88.6555 44.3915 88.4155 44.2318 88.2137 44.0298C88.0118 43.8279 87.8522 43.5879 87.744 43.3237C87.6358 43.0594 87.5812 42.7763 87.5834 42.4908Z" fill="black"/>
<path d="M32.9044 9.05594V40.7187C32.9088 41.282 32.8011 41.8405 32.5875 42.3617C32.374 42.883 32.0588 43.3565 31.6605 43.7548C31.2621 44.153 30.7885 44.4681 30.2673 44.6815C29.746 44.895 29.1875 45.0026 28.6242 44.9981H26.473C26.473 41.0854 26.473 33.5948 26.473 32.6688V32.4308L26.5413 32.3989C26.6097 32.4922 26.6838 32.5811 26.7633 32.6652C26.8765 32.7778 27.018 32.8577 27.1728 32.8966C27.3277 32.9355 27.4902 32.9319 27.6431 32.8863C28.3783 32.6821 28.5629 31.8377 27.9983 31.2669C24.8323 28.0813 21.6656 24.8958 18.4985 21.7102C17.3585 20.564 15.6405 20.5623 14.4979 21.7022C11.3609 24.8304 8.22592 27.96 5.09306 31.0911C4.89596 31.2882 4.74769 31.535 4.57634 31.7578V32.2213C4.59427 32.2448 4.6103 32.2698 4.62428 32.2959C4.92082 32.9866 5.66837 33.1331 6.20729 32.6031C6.26422 32.5401 6.31645 32.473 6.36355 32.4024L6.4328 32.4335V32.6714C6.4328 34.8431 6.44878 41.1822 6.43812 44.9999H4.28069C3.71742 45.0044 3.15889 44.8968 2.63762 44.6833C2.11634 44.4698 1.64274 44.1548 1.2444 43.7565C0.846056 43.3583 0.530928 42.8848 0.317364 42.3635C0.1038 41.8423 -0.00393138 41.2838 0.000443952 40.7205V9.05594C-0.00772593 8.48872 0.096938 7.92554 0.308352 7.39913C0.519766 6.87272 0.833711 6.39358 1.23194 5.98958C1.63016 5.58557 2.10473 5.26476 2.62804 5.04579C3.15135 4.82681 3.71297 4.71405 4.28024 4.71405C4.84752 4.71405 5.40914 4.82681 5.93245 5.04579C6.45576 5.26476 6.93032 5.58557 7.32855 5.98958C7.72678 6.39358 8.04072 6.87272 8.25214 7.39913C8.46355 7.92554 8.56822 8.48872 8.56005 9.05594V16.6221H24.3457V9.05594C24.3457 7.92075 24.7967 6.83205 25.5994 6.02935C26.4021 5.22665 27.4908 4.77569 28.626 4.77569C29.7612 4.77569 30.8499 5.22665 31.6526 6.02935C32.4553 6.83205 32.9062 7.92075 32.9062 9.05594H32.9044ZM18.8012 31.7081C18.925 31.712 19.0483 31.6907 19.1635 31.6454C19.2788 31.6002 19.3837 31.532 19.4718 31.445C19.5599 31.3579 19.6294 31.2539 19.676 31.1392C19.7227 31.0245 19.7455 30.9015 19.7432 30.7777C19.7432 30.2512 19.3392 29.8561 18.7932 29.8561C17.2786 29.8561 15.7639 29.8561 14.2493 29.8561C13.7024 29.8561 13.2984 30.2494 13.2966 30.7759C13.2949 31.3024 13.6962 31.7081 14.2582 31.709C15.0075 31.709 15.7568 31.709 16.5062 31.709C17.2715 31.709 18.0359 31.7081 18.8012 31.7081Z" fill="black"/>
</svg>
